<?xml version="1.0" standalone="no"?><!DOCTYPE svg PUBLIC "-//W3C//DTD SVG 1.1//EN"
  "http://www.w3.org/Graphics/SVG/1.1/DTD/svg11.dtd">
<svg class="icon" viewBox="0 0 1024 1024" version="1.1"
  xmlns="http://www.w3.org/2000/svg" width="16" height="16"
  xmlns:xlink="http://www.w3.org/1999/xlink">
  <path
    d="M946.523 488.526a434.337 434.337 0 0 0-6.319-56.543 10.036 10.036 0 0 0-6.438-7.681l-57.815-21.018-43.705-15.889c-5.569-2.025-8.166-8.421-5.584-13.755l20.21-41.758L873.7 276.45a10.04 10.04 0 0 0-0.736-9.992 433.3 433.3 0 0 0-34.877-44.97c-5.86-6.612-11.911-13.084-18.201-19.374a443.055 443.055 0 0 0-14.817-14.139 434.012 434.012 0 0 0-44.472-35.506 10.038 10.038 0 0 0-9.981-0.877l-55.835 26.062-42.026 19.616c-5.37 2.506-11.729-0.18-13.675-5.777l-15.272-43.921-20.207-58.114a10.038 10.038 0 0 0-7.588-6.545 432.977 432.977 0 0 0-56.451-7.117A444.862 444.862 0 0 0 513 75c-6.85 0-13.674 0.163-20.474 0.477a434.337 434.337 0 0 0-56.543 6.319 10.036 10.036 0 0 0-7.681 6.438l-21.018 57.815-15.889 43.705c-2.025 5.569-8.421 8.166-13.755 5.585l-41.758-20.21-55.431-26.829a10.037 10.037 0 0 0-9.992 0.736 433.163 433.163 0 0 0-44.97 34.877c-6.612 5.86-13.084 11.912-19.375 18.202a442.089 442.089 0 0 0-14.139 14.817 434.012 434.012 0 0 0-35.506 44.472 10.038 10.038 0 0 0-0.877 9.981l26.062 55.835 19.616 42.026c2.506 5.37-0.18 11.729-5.777 13.675l-43.922 15.272L93.457 418.4a10.038 10.038 0 0 0-6.545 7.588 432.977 432.977 0 0 0-7.117 56.451A445.645 445.645 0 0 0 79 509c0 6.849 0.163 13.674 0.477 20.474a434.165 434.165 0 0 0 6.32 56.543 10.036 10.036 0 0 0 6.438 7.681l57.815 21.019 43.705 15.889c5.569 2.025 8.166 8.421 5.584 13.755l-20.21 41.757-26.829 55.431a10.037 10.037 0 0 0 0.736 9.992 433.045 433.045 0 0 0 34.877 44.969c5.86 6.612 11.912 13.085 18.202 19.375a442.057 442.057 0 0 0 14.817 14.138 433.876 433.876 0 0 0 44.472 35.506 10.038 10.038 0 0 0 9.981 0.877l55.835-26.062 42.026-19.616c5.37-2.506 11.729 0.18 13.675 5.777l15.272 43.921L422.4 928.54a10.038 10.038 0 0 0 7.588 6.545 432.977 432.977 0 0 0 56.451 7.117c8.811 0.529 17.666 0.798 26.561 0.798 6.849 0 13.674-0.163 20.473-0.477a434.165 434.165 0 0 0 56.543-6.32 10.036 10.036 0 0 0 7.681-6.438l21.019-57.815 15.889-43.705c2.025-5.569 8.421-8.166 13.755-5.584l41.757 20.21 55.432 26.828a10.037 10.037 0 0 0 9.992-0.736 433.163 433.163 0 0 0 44.97-34.877c6.612-5.86 13.084-11.911 19.375-18.202a443.024 443.024 0 0 0 14.138-14.817 433.876 433.876 0 0 0 35.506-44.472 10.035 10.035 0 0 0 0.877-9.981l-26.062-55.835-19.616-42.025c-2.506-5.37 0.18-11.729 5.777-13.675l43.921-15.272 58.114-20.208a10.038 10.038 0 0 0 6.545-7.588 432.977 432.977 0 0 0 7.117-56.451c0.528-8.81 0.797-17.665 0.797-26.56 0-6.849-0.163-13.674-0.477-20.474z m-57.673 60.879a10.026 10.026 0 0 1-6.669 8.416l-128.655 44.736c-5.597 1.946-8.284 8.305-5.777 13.675l57.526 123.245a10.024 10.024 0 0 1-1.38 10.642 381.32 381.32 0 0 1-53.883 53.135 10.025 10.025 0 0 1-10.661 1.231l-122.428-59.254c-5.334-2.582-11.73 0.015-13.755 5.585L556.63 878.825a10.026 10.026 0 0 1-8.508 6.55A380.131 380.131 0 0 1 513 887c-13.648 0-27.127-0.731-40.405-2.15a10.028 10.028 0 0 1-8.416-6.669l-44.736-128.655c-1.946-5.597-8.305-8.284-13.675-5.777l-123.246 57.526a10.024 10.024 0 0 1-10.642-1.38 381.434 381.434 0 0 1-53.136-53.883 10.025 10.025 0 0 1-1.231-10.661l59.253-122.428c2.582-5.334-0.015-11.73-5.584-13.755l-128.008-46.537a10.026 10.026 0 0 1-6.55-8.508 380.504 380.504 0 0 1 0.526-75.528 10.026 10.026 0 0 1 6.669-8.416l128.655-44.736c5.597-1.946 8.284-8.305 5.777-13.675l-57.526-123.245a10.024 10.024 0 0 1 1.38-10.642 381.388 381.388 0 0 1 53.884-53.136 10.025 10.025 0 0 1 10.661-1.231l122.428 59.253c5.334 2.582 11.73-0.015 13.755-5.584l46.537-128.008a10.026 10.026 0 0 1 8.508-6.55A380.115 380.115 0 0 1 513 131c13.648 0 27.128 0.731 40.405 2.15a10.026 10.026 0 0 1 8.416 6.669l44.736 128.655c1.946 5.597 8.305 8.284 13.675 5.777l123.245-57.526a10.024 10.024 0 0 1 10.642 1.38 381.32 381.32 0 0 1 53.135 53.883 10.025 10.025 0 0 1 1.231 10.661l-59.254 122.428c-2.582 5.334 0.015 11.73 5.585 13.755l128.009 46.537a10.026 10.026 0 0 1 6.55 8.508A380.153 380.153 0 0 1 891 509c0 13.648-0.731 27.128-2.15 40.405z"
    fill="#1296db"></path>
  <path
    d="M513 324c-102.009 0-185 82.991-185 185 0 102.01 82.991 185 185 185 102.01 0 185-82.99 185-185 0-102.009-82.99-185-185-185z m0 314c-71.131 0-129-57.869-129-129s57.869-129 129-129 129 57.869 129 129-57.869 129-129 129z"
    fill="#1296db"></path>
</svg>